<svg width="35" height="35" viewBox="0 0 35 35" fill="none" xmlns="http://www.w3.org/2000/svg">
<path d="M3.84798 11.6622L2.05404 10.1904C1.07943 9.39114 1.07943 8.09017 2.05404 7.29042C3.02864 6.49094 4.61458 6.49094 5.58919 7.29042L7.50456 8.86162C9.5026 7.72007 11.7803 6.92993 14.1667 6.55075V4.51172H12.5C12.0397 4.51172 11.6667 4.2057 11.6667 3.82812V2.05078C11.6667 0.919914 12.7881 0 14.1667 0H20.8333C22.2119 0 23.3333 0.919914 23.3333 2.05078V3.82812C23.3333 4.2057 22.9603 4.51172 22.5 4.51172H20.8333V6.55075C23.2194 6.92966 25.4974 7.72007 27.4954 8.86162L29.4108 7.29042C30.3851 6.49094 31.971 6.49094 32.946 7.29042C33.9206 8.0899 33.9206 9.39087 32.946 10.1904L31.152 11.6622C33.6387 14.203 35 17.3678 35 20.6445C35 28.5601 27.1494 35 17.5 35C7.85059 35 -1.04308e-06 28.5601 -1.04308e-06 20.6445C-1.04308e-06 17.3678 1.36133 14.203 3.84798 11.6622V11.6622ZM4.41081 8.25706C4.08561 7.99057 3.55729 7.99084 3.23242 8.25706C2.90788 8.52356 2.90788 8.95721 3.23242 9.22371L4.95443 10.636C5.34245 10.3092 5.74935 9.99756 6.17253 9.70249L4.41081 8.25706ZM21.6667 2.05078C21.6667 1.67374 21.293 1.36719 20.8333 1.36719H14.1667C13.707 1.36719 13.3333 1.67374 13.3333 2.05078V3.14453H21.6667V2.05078ZM15.8333 4.51172V6.35368C16.9378 6.26877 18.0618 6.26877 19.1667 6.35368V4.51172H15.8333ZM31.7676 8.25706C31.4427 7.99084 30.9141 7.99057 30.5892 8.25706L28.8275 9.70249C29.2507 9.99756 29.6576 10.3092 30.0456 10.636L31.7676 9.22371C32.0921 8.95721 32.0921 8.52356 31.7676 8.25706ZM17.5 33.6328C26.2305 33.6328 33.3333 27.8062 33.3333 20.6445C33.3333 17.4853 31.9352 14.4415 29.3968 12.0732C28.6976 11.4208 27.9173 10.8248 27.0778 10.3009C24.974 8.98766 22.4837 8.12328 19.8763 7.80098C19.096 7.70512 18.2965 7.65625 17.5 7.65625C16.7034 7.65625 15.904 7.70512 15.124 7.80098C12.5163 8.12328 10.026 8.98766 7.92187 10.3009C7.08268 10.8248 6.30241 11.4208 5.60319 12.0732C3.06478 14.4415 1.66667 17.4853 1.66667 20.6445C1.66667 27.8062 8.76953 33.6328 17.5 33.6328Z" fill="#00B2FF"/>
<path d="M17.5002 22.6953C16.1217 22.6953 15.0002 21.7754 15.0002 20.6445C15.0002 19.7535 15.6969 18.9935 16.6669 18.7112V13.8086C16.6669 13.431 17.04 13.125 17.5002 13.125C17.9605 13.125 18.3336 13.431 18.3336 13.8086V18.7112C19.3036 18.9935 20.0002 19.7535 20.0002 20.6445C20.0002 21.7754 18.8788 22.6953 17.5002 22.6953ZM17.5002 19.9609C17.0406 19.9609 16.6669 20.2675 16.6669 20.6445C16.6669 21.0216 17.0406 21.3281 17.5002 21.3281C17.9599 21.3281 18.3336 21.0216 18.3336 20.6445C18.3336 20.2675 17.9599 19.9609 17.5002 19.9609Z" fill="#00B2FF"/>
<path d="M8.62284 13.4326C8.63586 13.42 8.64888 13.4075 8.66353 13.3957C8.67916 13.3826 8.69576 13.3709 8.71236 13.3591C10.1811 12.1671 11.9956 11.2851 13.9646 10.8082C14.4064 10.7014 14.8696 10.9081 14.9998 11.2702C15.13 11.6323 14.8781 12.0125 14.4366 12.1193C12.9777 12.4729 11.6167 13.0838 10.4565 13.8996L11.0187 14.3608C11.3439 14.6278 11.3439 15.0607 11.0187 15.3277C10.8559 15.4612 10.6427 15.528 10.4292 15.528C10.2159 15.528 10.0027 15.4612 9.83997 15.3277L9.27649 14.8655C7.76868 16.3037 6.87317 18.0741 6.69869 19.9609H7.50012C7.96041 19.9609 8.33345 20.2672 8.33345 20.6445C8.33345 21.0221 7.96041 21.3281 7.50012 21.3281H6.69869C6.87317 23.2152 7.76868 24.9853 9.27649 26.4235L9.83997 25.9613C10.1655 25.6945 10.6932 25.6945 11.0187 25.9613C11.3442 26.2283 11.3442 26.6612 11.0187 26.9282L10.4552 27.3904C12.2085 28.6273 14.3667 29.3619 16.6668 29.5053V28.8476C16.6668 28.47 17.0398 28.164 17.5001 28.164C17.9604 28.164 18.3335 28.47 18.3335 28.8476V29.505C20.6336 29.3619 22.7918 28.6273 24.545 27.3904L23.9816 26.9282C23.656 26.6612 23.656 26.2283 23.9816 25.9613C24.3071 25.6945 24.8348 25.6945 25.1603 25.9613L25.7238 26.4235C27.2316 24.9853 28.1271 23.2149 28.3016 21.3281H27.5001C27.0398 21.3281 26.6668 21.0221 26.6668 20.6445C26.6668 20.2669 27.0398 19.9609 27.5001 19.9609H28.3016C28.1271 18.0741 27.2316 16.3037 25.7238 14.8655L25.1603 15.3277C24.9975 15.4612 24.7843 15.528 24.5711 15.528C24.3575 15.528 24.1443 15.4612 23.9816 15.3277C23.6564 15.0607 23.6564 14.6278 23.9816 14.3608L24.5437 13.8996C23.3836 13.0836 22.0226 12.4729 20.5636 12.1193C20.1222 12.0125 19.8702 11.6323 20.0004 11.2702C20.1307 10.9081 20.5935 10.7017 21.0356 10.8082C23.0044 11.2849 24.8182 12.1666 26.2866 13.3581C26.3038 13.3701 26.3208 13.3824 26.3367 13.3955C26.351 13.4072 26.3637 13.4195 26.3767 13.4318C28.7137 15.3667 30.0001 17.9259 30.0001 20.6445C30.0001 23.3628 28.7137 25.9218 26.3774 27.8564C26.3644 27.869 26.3514 27.8815 26.3367 27.8933C26.3224 27.9053 26.3074 27.9157 26.2924 27.9264C23.9337 29.8431 20.8142 30.8984 17.5001 30.8984C14.1863 30.8984 11.0669 29.8434 8.70845 27.9269C8.69316 27.916 8.67786 27.9053 8.66353 27.8933C8.64921 27.8818 8.63651 27.8692 8.62349 27.8572C6.28658 25.9223 5.00012 23.3631 5.00012 20.6445C5.00012 17.9261 6.28658 15.3672 8.62284 13.4326V13.4326Z" fill="#00B2FF"/>
<path d="M17.5 11.7578C17.0401 11.7578 16.6667 11.4515 16.6667 11.0742C16.6667 10.6969 17.0401 10.3906 17.5 10.3906C17.96 10.3906 18.3334 10.6969 18.3334 11.0742C18.3334 11.4515 17.96 11.7578 17.5 11.7578Z" fill="#00B2FF"/>
</svg>
